<!-- Simple Book Donation Logo SVG -->
<svg width="40" height="40" viewBox="0 0 40 40" fill="none" xmlns="http://www.w3.org/2000/svg">
  <rect width="40" height="40" rx="8" fill="#F47B20"/>
  <path d="M12 10h16v2H12v-2zm0 4h16v2H12v-2zm0 4h16v2H12v-2z" fill="white"/>
  <path d="M10 8c-1.1 0-2 .9-2 2v20c0 1.1.9 2 2 2h20c1.1 0 2-.9 2-2V10c0-1.1-.9-2-2-2H10z" stroke="white" stroke-width="1" fill="none"/>
  <circle cx="28" cy="12" r="6" fill="#2F2F2F"/>
  <path d="M26 10l2 2 2-2" stroke="white" stroke-width="1"/>
</svg>
